<?xml version="1.0" standalone="no"?>
<!DOCTYPE svg PUBLIC "-//W3C//DTD SVG 20010904//EN"
 "http://www.w3.org/TR/2001/REC-SVG-20010904/DTD/svg10.dtd">
<svg version="1.0" xmlns="http://www.w3.org/2000/svg"
 width="50.000000pt" height="50.000000pt" viewBox="0 0 50.000000 50.000000"
 preserveAspectRatio="xMidYMid meet">

<g transform="translate(0.000000,50.000000) scale(0.100000,-0.100000)"
fill="#000000" stroke="none">
<path d="M90 435 c-33 -40 35 -110 97 -101 17 2 34 2 37 -1 3 -3 -10 -25 -29
-48 -40 -48 -44 -74 -15 -100 20 -18 20 -18 -16 -62 -19 -24 -34 -51 -32 -60
6 -32 38 -26 71 12 l32 37 0 -44 c0 -39 2 -43 25 -43 23 0 26 5 33 60 5 34 15
63 23 68 20 11 19 145 -1 174 -9 12 -48 45 -87 72 -74 53 -115 63 -138 36z
m50 -24 c0 -11 12 -29 26 -40 25 -19 25 -21 6 -21 -30 0 -77 43 -69 63 9 23
37 21 37 -2z m78 -28 c88 -64 92 -71 92 -145 0 -39 -4 -68 -10 -68 -5 0 -10
25 -10 56 l0 57 -30 -38 c-17 -21 -30 -41 -30 -46 0 -4 12 -16 26 -26 24 -18
26 -22 19 -76 -4 -31 -12 -57 -17 -57 -7 0 -8 19 -4 51 7 51 6 52 -34 86 -22
19 -40 41 -40 49 0 8 18 34 41 58 l40 44 -45 31 c-25 17 -48 36 -51 41 -12 19
16 10 53 -17z m52 -179 c0 -8 -5 -12 -10 -9 -6 4 -8 11 -5 16 9 14 15 11 15
-7z m-50 -71 c-20 -35 -59 -77 -66 -71 -8 8 53 88 67 88 6 0 6 -7 -1 -17z"/>
<path d="M326 404 c-31 -30 -9 -84 34 -84 24 0 50 26 50 50 0 24 -26 50 -50
50 -10 0 -26 -7 -34 -16z m59 -34 c0 -18 -6 -26 -23 -28 -13 -2 -25 3 -28 12
-10 26 4 48 28 44 17 -2 23 -10 23 -28z"/>
</g>
</svg>
